<svg width="32" height="32" viewBox="0 0 369 369" fill="none" xmlns="http://www.w3.org/2000/svg">
  <path
    d="M283.515 47.0474H85.4851C75.2996 47.0758 65.5393 51.1345 58.3371 58.3368C51.1348 65.5391 47.076 75.2993 47.0476 85.4849V283.515C47.076 293.7 51.1348 303.461 58.3371 310.663C65.5393 317.865 75.2996 321.924 85.4851 321.952H283.515C293.709 321.952 303.486 317.903 310.695 310.694C317.903 303.486 321.953 293.709 321.953 283.515V85.4849C321.953 75.2906 317.903 65.5139 310.695 58.3054C303.486 51.097 293.709 47.0474 283.515 47.0474ZM306.578 283.515C306.533 289.618 304.089 295.458 299.774 299.774C295.458 304.089 289.618 306.533 283.515 306.577H85.4851C79.3822 306.533 73.5419 304.089 69.2264 299.774C64.9109 295.458 62.4669 289.618 62.4226 283.515V85.4849C62.4669 79.382 64.9109 73.5416 69.2264 69.2261C73.5419 64.9106 79.3822 62.4666 85.4851 62.4224H283.515C289.618 62.4666 295.458 64.9106 299.774 69.2261C304.089 73.5416 306.533 79.382 306.578 85.4849V283.515Z"
    fill="#3e98c7"
  />
  <path
    d="M98.031 165.25C98.031 161.173 99.6509 157.262 102.534 154.379C105.418 151.495 109.328 149.875 113.406 149.875C117.484 149.875 121.394 151.495 124.278 154.379C127.161 157.262 128.781 161.173 128.781 165.25V265.188C128.781 269.266 127.161 273.176 124.278 276.06C121.394 278.943 117.484 280.563 113.406 280.563C109.328 280.563 105.418 278.943 102.534 276.06C99.6509 273.176 98.031 269.266 98.031 265.188V165.25Z"
    fill="#3e98c7"
  />
  <path
    d="M113.406 119.064C121.897 119.064 128.781 112.18 128.781 103.689C128.781 95.1976 121.897 88.314 113.406 88.314C104.915 88.314 98.031 95.1976 98.031 103.689C98.031 112.18 104.915 119.064 113.406 119.064Z"
    fill="#3e98c7"
  />
  <path
    d="M270.908 205.564V265.219C270.908 269.297 269.288 273.207 266.404 276.091C263.521 278.974 259.61 280.594 255.533 280.594C251.455 280.594 247.544 278.974 244.661 276.091C241.777 273.207 240.158 269.297 240.158 265.219V205.564C240.158 198.978 237.542 192.663 232.885 188.006C228.228 183.349 221.912 180.733 215.327 180.733C208.741 180.733 202.426 183.349 197.769 188.006C193.112 192.663 190.496 198.978 190.496 205.564V265.219C190.496 269.297 188.876 273.207 185.993 276.091C183.11 278.974 179.199 280.594 175.121 280.594C171.044 280.594 167.133 278.974 164.25 276.091C161.366 273.207 159.746 269.297 159.746 265.219V165.281C159.81 161.223 161.45 157.349 164.32 154.48C167.189 151.61 171.063 149.97 175.121 149.906C177.725 149.835 180.3 150.469 182.574 151.741C184.847 153.013 186.735 154.876 188.036 157.133C196.49 152.336 206.055 149.844 215.774 149.906C225.493 149.968 235.026 152.582 243.417 157.486C251.809 162.391 258.765 169.413 263.589 177.85C268.414 186.288 270.937 195.844 270.908 205.564Z"
    fill="#3e98c7"
  />
</svg>
